<svg width="120" height="120" viewBox="0 0 120 120" xmlns="http://www.w3.org/2000/svg">
  <!-- 背景圆 -->
  <circle cx="60" cy="60" r="55" fill="white" />
  
  <!-- 棋盘格子 -->
  <rect x="30" y="30" width="60" height="60" fill="none" stroke="#ff69b4" stroke-width="3" />
  <line x1="60" y1="30" x2="60" y2="90" stroke="#ff69b4" stroke-width="3" />
  <line x1="30" y1="60" x2="90" y2="60" stroke="#ff69b4" stroke-width="3" />
  
  <!-- 中心装饰 -->
  <circle cx="60" cy="60" r="15" fill="#ff69b4" />
  
  <!-- 小飞机 -->
  <g transform="translate(60, 40) rotate(-45)">
    <path d="M0,-10 L15,10 L0,5 L-15,10 Z" fill="#666" />
  </g>
  <g transform="translate(80, 60) rotate(0)">
    <path d="M0,-10 L15,10 L0,5 L-15,10 Z" fill="#666" />
  </g>
  <g transform="translate(60, 80) rotate(45)">
    <path d="M0,-10 L15,10 L0,5 L-15,10 Z" fill="#666" />
  </g>
  <g transform="translate(40, 60) rotate(90)">
    <path d="M0,-10 L15,10 L0,5 L-15,10 Z" fill="#666" />
  </g>
</svg>