<svg xmlns="http://www.w3.org/2000/svg" viewBox="0 0 100 100" width="100" height="100">
  <!-- 背景 -->
  <circle cx="50" cy="50" r="45" fill="#98fb98"/>
  
  <!-- 足部图标 -->
  <path d="M35,60 C30,60 25,70 25,80 C25,90 35,90 35,80 C35,75 40,75 40,80 C40,90 50,90 50,80 C50,70 45,60 40,60 C35,60 35,60 35,60 Z" fill="#3cb371"/>
  <path d="M65,60 C70,60 75,70 75,80 C75,90 65,90 65,80 C65,75 60,75 60,80 C60,90 50,90 50,80 C50,70 55,60 60,60 C65,60 65,60 65,60 Z" fill="#3cb371"/>
  
  <!-- 装饰元素 -->
  <path d="M30,55 L30,60" stroke="#2e8b57" stroke-width="2"/>
  <path d="M40,55 L40,60" stroke="#2e8b57" stroke-width="2"/>
  <path d="M60,55 L60,60" stroke="#2e8b57" stroke-width="2"/>
  <path d="M70,55 L70,60" stroke="#2e8b57" stroke-width="2"/>
  <path d="M25,70 L35,70" stroke="#2e8b57" stroke-width="2"/>
  <path d="M65,70 L75,70" stroke="#2e8b57" stroke-width="2"/>
</svg>