<svg width="120" height="120" viewBox="0 0 120 120" xmlns="http://www.w3.org/2000/svg">
  <!-- 背景圆 -->
  <circle cx="60" cy="60" r="55" fill="white" />
  
  <!-- 心形 -->
  <path d="M60,30 C80,10 100,30 100,50 C100,70 80,90 60,100 C40,90 20,70 20,50 C20,30 40,10 60,30 Z" fill="#ff69b4" />
  
  <!-- 对话气泡 - 真心话 -->
  <g transform="translate(40, 40)">
    <path d="M0,0 L30,0 L30,-10 L40,-10 L40,10 L30,10 L30,20 L0,20 Z" fill="white" />
    <text x="5" y="12" font-family="Arial, sans-serif" font-size="8" fill="#333">真心话</text>
  </g>
  
  <!-- 对话气泡 - 大冒险 -->
  <g transform="translate(50, 70)">
    <path d="M0,0 L30,0 L30,-10 L40,-10 L40,10 L30,10 L30,20 L0,20 Z" fill="white" />
    <text x="5" y="12" font-family="Arial, sans-serif" font-size="8" fill="#333">大冒险</text>
  </g>
</svg>