<svg width="120" height="120" viewBox="0 0 120 120" xmlns="http://www.w3.org/2000/svg">
  <!-- 背景圆 -->
  <circle cx="60" cy="60" r="55" fill="white" />
  
  <!-- 转盘 -->
  <g>
    <path d="M60,60 L60,15 A45,45 0 0,1 105,60 Z" fill="#ff69b4" />
    <path d="M60,60 L105,60 A45,45 0 0,1 60,105 Z" fill="#ff8fd8" />
    <path d="M60,60 L60,105 A45,45 0 0,1 15,60 Z" fill="#ffb6c1" />
    <path d="M60,60 L15,60 A45,45 0 0,1 60,15 Z" fill="#ffc0cb" />
  </g>
  
  <!-- 中心圆点 -->
  <circle cx="60" cy="60" r="10" fill="white" />
  
  <!-- 转盘指针 -->
  <g transform="translate(60, 20)">
    <polygon points="-10,0 10,0 0,-20" fill="#666" />
  </g>
</svg>