<svg xmlns="http://www.w3.org/2000/svg" viewBox="0 0 100 100" width="100" height="100">
  <!-- 背景 -->
  <circle cx="50" cy="50" r="45" fill="#ff69b4"/>
  
  <!-- 飞行棋棋盘 -->
  <rect x="25" y="25" width="50" height="50" rx="5" fill="#ffffff"/>
  <path d="M25,50 L75,50" stroke="#ff69b4" stroke-width="2"/>
  <path d="M50,25 L50,75" stroke="#ff69b4" stroke-width="2"/>
  
  <!-- 心形装饰 -->
  <path d="M50,35 C45,35 40,40 40,45 C40,50 45,55 50,55 C55,55 60,50 60,45 C60,40 55,35 50,35 Z" fill="#ff69b4"/>
  
  <!-- 骰子 -->
  <rect x="38" y="60" width="24" height="24" rx="3" fill="#ffffff" stroke="#333333" stroke-width="2"/>
  <circle cx="45" cy="67" r="3" fill="#333333"/>
  <circle cx="55" cy="67" r="3" fill="#333333"/>
  <circle cx="45" cy="77" r="3" fill="#333333"/>
  <circle cx="55" cy="77" r="3" fill="#333333"/>
</svg>