<svg width="120" height="120" viewBox="0 0 120 120" xmlns="http://www.w3.org/2000/svg">
  <!-- 背景圆 -->
  <circle cx="60" cy="60" r="55" fill="white" />
  
  <!-- 盲盒 -->
  <rect x="35" y="40" width="50" height="50" rx="5" fill="#ff69b4" />
  <rect x="40" y="45" width="40" height="40" rx="2" fill="white" />
  
  <!-- 盒盖 -->
  <rect x="35" y="40" width="50" height="10" rx="5" ry="0" fill="#ff8fd8" />
  <line x1="45" y1="45" x2="45" y2="50" stroke="#ff69b4" stroke-width="2" />
  <line x1="75" y1="45" x2="75" y2="50" stroke="#ff69b4" stroke-width="2" />
  
  <!-- 地雷图案 -->
  <circle cx="60" cy="65" r="15" fill="black" />
  <circle cx="60" cy="65" r="10" fill="#333" />
  <circle cx="55" cy="60" r="2" fill="white" />
  <circle cx="65" cy="60" r="2" fill="white" />
  <circle cx="55" cy="70" r="2" fill="white" />
  <circle cx="65" cy="70" r="2" fill="white" />
  
  <!-- 爆炸效果 -->
  <path d="M30,65 Q45,35 60,65 T90,65" stroke="#ffcc00" stroke-width="2" fill="none" />
  <path d="M60,30 Q60,45 60,65 T60,100" stroke="#ffcc00" stroke-width="2" fill="none" />
</svg>