<svg xmlns="http://www.w3.org/2000/svg" viewBox="0 0 100 100" width="100" height="100">
  <!-- 背景 -->
  <circle cx="50" cy="50" r="45" fill="#ffb6c1"/>
  
  <!-- 爱心 -->
  <path d="M50,20 C30,20 15,35 15,55 C15,75 30,90 50,90 C70,90 85,75 85,55 C85,35 70,20 50,20 Z" fill="#ff69b4"/>
  <path d="M50,25 C65,25 75,35 75,50 C75,65 65,75 50,75 C35,75 25,65 25,50 C25,35 35,25 50,25 Z" fill="#ffffff"/>
  
  <!-- 情侣剪影 -->
  <path d="M40,50 C40,40 35,35 30,35 C25,35 20,40 20,50 C20,60 25,65 30,65 C35,65 40,60 40,50 Z" fill="#333333"/>
  <path d="M60,50 C60,40 65,35 70,35 C75,35 80,40 80,50 C80,60 75,65 70,65 C65,65 60,60 60,50 Z" fill="#333333"/>
  <line x1="30" y1="70" x2="30" y2="80" stroke="#333333" stroke-width="3"/>
  <line x1="70" y1="70" x2="70" y2="80" stroke="#333333" stroke-width="3"/>
  <line x1="30" y1="75" x2="70" y2="75" stroke="#333333" stroke-width="3"/>
</svg>