<svg xmlns="http://www.w3.org/2000/svg" viewBox="0 0 100 100" width="100" height="100">
  <!-- 背景 -->
  <circle cx="50" cy="50" r="45" fill="#ffe4e1"/>
  
  <!-- 女仆头饰 -->
  <path d="M30,30 C30,20 70,20 70,30 C70,40 60,45 50,45 C40,45 30,40 30,30 Z" fill="#ff69b4"/>
  <rect x="45" y="15" width="10" height="15" fill="#ffffff"/>
  <circle cx="50" cy="15" r="5" fill="#ff69b4"/>
  
  <!-- 女仆剪影 -->
  <path d="M50,45 C50,45 40,55 40,65 C40,75 60,75 60,65 C60,55 50,45 50,45 Z" fill="#333333"/>
  <line x1="40" y1="65" x2="35" y2="80" stroke="#333333" stroke-width="3"/>
  <line x1="60" y1="65" x2="65" y2="80" stroke="#333333" stroke-width="3"/>
  <line x1="35" y1="80" x2="65" y2="80" stroke="#333333" stroke-width="3"/>
</svg>